 <svg version="1.0" xmlns="http://www.w3.org/2000/svg" width="700.000000pt" height="755.000000pt" viewBox="0 0 700.000000 755.000000" preserveAspectRatio="xMidYMid meet">
<metadata>
Created by potrace 1.12, written by Peter Selinger 2001-2015
</metadata>
<g transform="translate(0.000000,755.000000) scale(0.100000,-0.100000)" fill="#000000" stroke="none">
<path d="M2506 6580 c-45 -14 -74 -48 -85 -102 -7 -31 -11 -281 -11 -701 0
-495 -3 -656 -12 -665 -9 -9 -173 -12 -677 -12 -367 0 -683 -4 -703 -9 -42
-10 -58 -24 -82 -68 -30 -60 -12 -137 42 -178 26 -19 45 -20 721 -23 540 -2
697 -5 703 -15 12 -19 10 -1505 -2 -1528 -10 -18 -29 -19 -691 -19 -749 0
-730 2 -769 -62 -24 -40 -25 -84 -5 -136 30 -75 -1 -72 770 -72 666 0 685 -1
695 -19 6 -13 10 -249 11 -693 1 -763 -5 -711 85 -760 46 -25 51 -26 89 -13
22 8 55 31 73 51 l32 37 0 687 c0 520 3 689 12 698 17 17 1579 17 1596 0 9 -9
12 -178 12 -698 l0 -685 30 -37 c59 -71 144 -74 211 -7 l39 39 2 648 c2 723 2
713 11 735 6 16 64 17 691 17 619 0 689 2 720 17 61 29 84 117 50 188 -31 66
-16 65 -774 65 l-680 0 -10 25 c-10 27 -9 1519 1 1529 3 3 321 7 706 9 679 2
702 3 722 21 28 26 54 81 54 115 0 41 -29 98 -59 118 -26 17 -69 18 -718 21
-464 2 -694 6 -702 13 -10 8 -13 151 -13 677 0 414 -4 680 -11 701 -31 106
-170 132 -237 44 l-28 -36 -5 -696 -5 -696 -799 -3 c-633 -2 -801 0 -808 10
-4 7 -8 322 -8 700 l0 687 -31 35 c-16 19 -38 37 -47 40 -43 12 -79 14 -106 6z
m1791 -1764 c11 -4 13 -152 13 -770 0 -746 0 -766 -19 -776 -31 -16 -1562 -14
-1584 3 -16 11 -17 67 -15 777 l3 765 40 5 c51 6 1545 2 1562 -4z"></path>
<path d="M3048 4539 c-29 -11 -58 -70 -58 -120 0 -43 20 -68 168 -214 73 -71
138 -138 143 -148 9 -16 -10 -40 -135 -163 -80 -79 -152 -157 -161 -173 -19
-39 -19 -82 1 -124 21 -44 61 -67 118 -67 l46 0 162 160 c88 88 165 160 169
160 4 0 66 -57 137 -127 194 -193 194 -193 251 -193 71 0 121 54 121 131 0 54
-18 78 -182 242 -70 71 -128 135 -128 144 0 8 63 76 141 151 77 74 147 148
155 163 33 64 6 159 -50 179 -32 11 -92 12 -118 2 -10 -4 -85 -73 -167 -155
-82 -81 -154 -147 -161 -147 -7 0 -56 44 -109 98 -204 205 -214 212 -268 211
-26 0 -60 -5 -75 -10z"></path>
<path d="M1525 6484 c-126 -33 -206 -78 -288 -161 -114 -116 -165 -236 -168
-395 -2 -100 5 -158 27 -227 21 -62 29 -76 101 -168 53 -68 77 -90 147 -131
122 -72 178 -87 316 -86 143 1 198 18 310 94 14 9 39 24 57 33 32 17 173 201
173 227 0 6 6 24 14 38 41 78 38 309 -5 408 -53 119 -138 223 -234 285 -100
65 -153 80 -300 84 -71 2 -139 2 -150 -1z m207 -258 c83 -19 150 -72 212 -166
35 -53 36 -58 36 -147 0 -84 -3 -97 -32 -154 -46 -86 -108 -139 -197 -168 -56
-18 -85 -22 -128 -18 -31 3 -61 11 -66 16 -6 6 -20 11 -30 11 -19 0 -87 50
-129 94 -11 12 -32 44 -46 71 -23 44 -26 62 -26 145 0 87 2 99 28 139 34 53
115 141 129 141 6 0 18 6 26 14 16 14 91 33 141 35 14 0 51 -5 82 -13z"></path>
<path d="M3080 6413 c-36 -7 -65 -37 -80 -83 -24 -74 -6 -104 156 -268 79 -79
144 -152 144 -161 0 -9 -62 -77 -137 -151 -76 -74 -146 -147 -155 -162 -24
-37 -23 -95 2 -135 24 -40 48 -53 104 -55 59 -3 90 20 249 182 70 71 132 130
136 130 5 0 66 -57 134 -126 178 -177 187 -184 257 -184 54 0 60 3 89 35 25
29 31 44 31 83 0 28 -7 58 -18 74 -9 14 -79 87 -155 161 -75 74 -137 141 -137
149 0 7 63 76 141 153 77 77 147 152 155 167 38 72 -7 180 -82 194 -66 12 -86
-1 -241 -156 -116 -117 -154 -150 -175 -150 -20 0 -43 19 -103 82 -42 45 -109
113 -150 151 -76 70 -105 82 -165 70z"></path>
<path d="M4940 6413 c-69 -26 -102 -93 -81 -165 10 -33 43 -71 157 -185 79
-79 144 -149 144 -157 0 -7 -67 -81 -150 -164 -84 -86 -152 -163 -156 -177
-11 -44 3 -106 29 -133 34 -33 109 -47 148 -27 16 9 94 81 174 160 79 80 149
145 154 145 6 0 78 -67 160 -149 124 -124 157 -152 193 -161 31 -9 47 -9 60
-1 10 6 24 11 31 11 30 0 60 49 65 104 l4 55 -58 62 c-33 35 -101 103 -151
153 -123 120 -123 123 -5 236 48 46 115 115 150 152 56 62 62 72 62 112 0 32
-8 53 -29 84 -35 47 -57 56 -117 47 -40 -6 -58 -20 -201 -160 -87 -85 -161
-155 -165 -155 -5 0 -76 68 -159 151 -169 168 -197 185 -259 162z"></path>
<path d="M1570 4631 c-80 -12 -217 -69 -286 -121 -10 -8 -42 -42 -70 -75 -115
-135 -147 -221 -146 -395 1 -177 39 -274 154 -396 112 -117 213 -168 364 -183
181 -17 351 35 466 144 46 43 104 126 144 205 38 74 38 77 42 210 4 124 2 141
-21 207 -22 63 -92 178 -144 239 -20 23 -106 79 -168 111 -96 49 -223 69 -335
54z m205 -283 c72 -29 110 -61 155 -130 92 -143 67 -305 -66 -427 -61 -56
-119 -76 -214 -75 -102 1 -156 24 -226 97 -80 82 -99 128 -99 237 1 105 17
142 100 225 58 58 100 80 190 99 35 7 108 -5 160 -26z"></path>
<path d="M5285 4633 c-112 -16 -263 -89 -335 -162 -125 -128 -182 -261 -182
-423 1 -117 21 -197 76 -293 69 -121 238 -265 312 -265 11 0 26 -6 32 -12 9
-9 57 -13 165 -13 161 0 162 0 292 61 54 24 183 145 219 204 59 96 93 256 81
374 -8 78 -42 190 -72 239 -13 21 -55 70 -92 110 -70 73 -151 123 -261 160
-46 16 -182 27 -235 20z m193 -281 c74 -23 174 -127 197 -203 32 -111 14 -215
-53 -301 -78 -101 -137 -130 -262 -130 -119 0 -181 28 -249 114 -55 69 -84
139 -85 208 -1 52 20 124 46 159 10 13 18 30 18 37 0 7 22 32 48 54 42 36 97
62 177 83 30 8 102 -1 163 -21z"></path>
<path d="M3430 2780 c-62 -8 -140 -28 -155 -40 -5 -4 -21 -11 -35 -15 -41 -13
-111 -67 -187 -145 -23 -24 -43 -48 -43 -53 0 -4 -11 -25 -25 -47 -14 -21 -29
-56 -34 -77 -6 -21 -17 -63 -26 -93 -21 -70 -14 -211 14 -293 28 -79 86 -185
124 -225 85 -89 221 -164 330 -182 166 -28 320 7 448 102 96 71 136 116 181
208 56 111 72 185 65 305 -13 226 -134 408 -337 507 -84 41 -219 61 -320 48z
m175 -273 c47 -14 157 -97 173 -130 43 -88 47 -104 46 -187 -1 -129 -45 -209
-149 -275 -122 -76 -236 -74 -358 8 -73 48 -110 99 -132 182 -34 126 2 245
100 333 32 28 77 58 99 66 51 18 168 20 221 3z"></path>
<path d="M5240 2769 c-114 -23 -156 -43 -258 -118 -74 -56 -170 -206 -196
-308 -23 -90 -21 -238 5 -316 86 -259 310 -427 569 -427 75 0 180 21 226 45
16 8 32 15 36 15 16 0 107 68 153 115 98 99 133 163 160 297 19 96 19 131 0
236 -20 119 -64 201 -155 293 -105 106 -159 138 -273 162 -121 26 -166 27
-267 6z m253 -272 c52 -22 142 -110 169 -166 19 -38 23 -62 23 -141 0 -80 -4
-102 -23 -140 -46 -88 -141 -161 -241 -184 -53 -12 -69 -12 -118 0 -142 35
-244 137 -272 271 -27 131 58 291 187 355 78 38 193 40 275 5z"></path>
<path d="M1218 2694 c-45 -19 -78 -71 -78 -123 0 -44 31 -83 208 -256 63 -62
102 -108 102 -121 0 -12 -51 -70 -135 -154 -75 -74 -144 -149 -155 -166 -61
-96 30 -214 142 -184 46 13 77 39 223 188 66 67 124 122 129 122 6 0 73 -64
150 -143 78 -78 157 -151 177 -161 50 -26 103 -15 146 31 75 79 60 113 -128
304 -82 83 -149 156 -149 163 0 6 43 54 97 106 186 183 223 228 223 270 0 35
-39 100 -73 120 -74 46 -108 27 -297 -164 -85 -86 -132 -126 -147 -126 -15 0
-66 44 -161 140 -127 128 -185 171 -224 169 -7 0 -30 -7 -50 -15z"></path>
<path d="M4190 340 c0 -5 7 -10 15 -10 8 0 15 5 15 10 0 6 -7 10 -15 10 -8 0
-15 -4 -15 -10z"></path>
<path d="M4350 340 c0 -5 12 -10 26 -10 14 0 23 4 19 10 -3 6 -15 10 -26 10
-10 0 -19 -4 -19 -10z"></path>
<path d="M4505 340 c-4 -6 7 -10 24 -10 17 0 31 5 31 10 0 6 -11 10 -24 10
-14 0 -28 -4 -31 -10z"></path>
<path d="M4675 340 c-4 -6 5 -10 20 -10 15 0 24 4 20 10 -3 6 -12 10 -20 10
-8 0 -17 -4 -20 -10z"></path>
<path d="M4835 340 c-3 -5 3 -10 15 -10 12 0 18 5 15 10 -3 6 -10 10 -15 10
-5 0 -12 -4 -15 -10z"></path>
<path d="M4995 340 c-4 -6 5 -10 20 -10 15 0 24 4 20 10 -3 6 -12 10 -20 10
-8 0 -17 -4 -20 -10z"></path>
<path d="M5120 339 c0 -5 15 -9 33 -8 17 1 44 -2 60 -6 21 -5 27 -4 27 8 0 12
-13 15 -60 16 -33 0 -60 -4 -60 -10z"></path>
<path d="M5315 320 c-7 -12 2 -30 16 -30 5 0 9 9 9 20 0 21 -15 27 -25 10z"></path>
<path d="M4015 310 c-3 -5 3 -10 14 -10 12 0 21 5 21 10 0 6 -6 10 -14 10 -8
0 -18 -4 -21 -10z"></path>
<path d="M5472 308 c6 -18 28 -21 28 -4 0 9 -7 16 -16 16 -9 0 -14 -5 -12 -12z"></path>
<path d="M2567 304 c-9 -9 4 -137 16 -151 18 -24 26 -13 11 15 -17 33 -18 66
-2 92 10 16 10 22 -3 35 -8 9 -18 13 -22 9z"></path>
<path d="M1947 285 c-7 -16 8 -29 23 -20 10 6 2 35 -10 35 -4 0 -10 -7 -13
-15z"></path>
<path d="M2046 292 c-2 -4 -1 -32 3 -62 l7 -55 12 53 c7 30 10 58 6 63 -6 11
-21 12 -28 1z"></path>
<path d="M1630 275 c0 -9 5 -15 11 -13 6 2 11 8 11 13 0 5 -5 11 -11 13 -6 2
-11 -4 -11 -13z"></path>
<path d="M4740 253 c0 -24 5 -43 10 -43 13 0 13 50 0 70 -7 11 -10 4 -10 -27z"></path>
<path d="M3510 259 c0 -11 5 -17 10 -14 6 3 10 13 10 21 0 8 -4 14 -10 14 -5
0 -10 -9 -10 -21z"></path>
<path d="M3670 246 c0 -14 5 -26 10 -26 6 0 10 9 10 19 0 11 -4 23 -10 26 -6
4 -10 -5 -10 -19z"></path>
<path d="M2240 250 c0 -5 5 -10 10 -10 6 0 10 5 10 10 0 6 -4 10 -10 10 -5 0
-10 -4 -10 -10z"></path>
<path d="M3351 244 c0 -11 3 -14 6 -6 3 7 2 16 -1 19 -3 4 -6 -2 -5 -13z"></path>
<path d="M2827 243 c-4 -3 -7 -13 -7 -22 1 -13 3 -13 11 2 11 19 8 33 -4 20z"></path>
<path d="M2980 240 c0 -5 10 -10 23 -10 18 0 19 2 7 10 -19 13 -30 13 -30 0z"></path>
<path d="M3830 240 c0 -5 5 -10 10 -10 6 0 10 5 10 10 0 6 -4 10 -10 10 -5 0
-10 -4 -10 -10z"></path>
<path d="M3512 210 c0 -14 2 -19 5 -12 2 6 2 18 0 25 -3 6 -5 1 -5 -13z"></path>
<path d="M4250 210 c0 -11 5 -20 10 -20 6 0 10 9 10 20 0 11 -4 20 -10 20 -5
0 -10 -9 -10 -20z"></path>
<path d="M4907 204 c-4 -4 -7 -14 -7 -23 0 -11 3 -12 11 -4 6 6 10 16 7 23 -2
6 -7 8 -11 4z"></path>
<path d="M5060 190 c-9 -16 -8 -20 5 -20 8 0 15 9 15 20 0 11 -2 20 -5 20 -2
0 -9 -9 -15 -20z"></path>
<path d="M5322 159 c-34 -13 -26 -19 24 -19 25 0 43 4 40 9 -9 14 -40 19 -64
10z"></path>
<path d="M1495 150 c-3 -5 3 -10 14 -10 12 0 21 5 21 10 0 6 -6 10 -14 10 -8
0 -18 -4 -21 -10z"></path>
<path d="M3240 150 c0 -5 9 -10 21 -10 11 0 17 5 14 10 -3 6 -13 10 -21 10 -8
0 -14 -4 -14 -10z"></path>
<path d="M4015 150 c-4 -6 12 -10 42 -10 35 0 44 3 33 10 -20 13 -67 13 -75 0z"></path>
<path d="M4195 150 c-3 -5 1 -10 10 -10 9 0 13 5 10 10 -3 6 -8 10 -10 10 -2
0 -7 -4 -10 -10z"></path>
<path d="M4330 150 c0 -5 12 -10 26 -10 14 0 23 4 19 10 -3 6 -15 10 -26 10
-10 0 -19 -4 -19 -10z"></path>
<path d="M4835 150 c-4 -6 5 -10 20 -10 15 0 24 4 20 10 -3 6 -12 10 -20 10
-8 0 -17 -4 -20 -10z"></path>
<path d="M4995 150 c-3 -5 3 -10 14 -10 12 0 21 5 21 10 0 6 -6 10 -14 10 -8
0 -18 -4 -21 -10z"></path>
<path d="M5475 150 c-4 -6 8 -10 30 -10 22 0 34 4 30 10 -3 6 -17 10 -30 10
-13 0 -27 -4 -30 -10z"></path>
<path d="M2208 143 c7 -3 16 -2 19 1 4 3 -2 6 -13 5 -11 0 -14 -3 -6 -6z"></path>
<path d="M2708 143 c6 -2 18 -2 25 0 6 3 1 5 -13 5 -14 0 -19 -2 -12 -5z"></path>
<path d="M2878 143 c7 -3 16 -2 19 1 4 3 -2 6 -13 5 -11 0 -14 -3 -6 -6z"></path>
<path d="M3388 143 c7 -3 16 -2 19 1 4 3 -2 6 -13 5 -11 0 -14 -3 -6 -6z"></path>
<path d="M4508 143 c7 -3 16 -2 19 1 4 3 -2 6 -13 5 -11 0 -14 -3 -6 -6z"></path>
<path d="M4688 143 c7 -3 16 -2 19 1 4 3 -2 6 -13 5 -11 0 -14 -3 -6 -6z"></path>
</g>
</svg>